<svg xmlns="http://www.w3.org/2000/svg" xmlns:xlink="http://www.w3.org/1999/xlink" width="2000" zoomAndPan="magnify" viewBox="0 0 1500 1499.999933" height="2000" preserveAspectRatio="xMidYMid meet" version="1.0"><path fill="#ff640b" d="M 749.789062 1020.425781 C 751.238281 1020.449219 752.6875 1020.480469 754.140625 1020.480469 C 901.957031 1020.480469 1022.082031 902.046875 1024.792969 754.917969 L 1024.855469 754.855469 L 1024.855469 479.253906 L 746.730469 479.253906 L 746.671875 479.308594 C 745.222656 479.285156 743.773438 479.253906 742.320312 479.253906 C 594.503906 479.253906 474.378906 597.6875 471.667969 744.816406 L 471.601562 744.878906 L 471.601562 1020.484375 L 749.734375 1020.484375 Z M 749.789062 1020.425781 " fill-opacity="1" fill-rule="nonzero"/><path fill="#9e9985" d="M 122.3125 747.714844 L 198.4375 747.714844 L 198.4375 752.015625 L 122.3125 752.015625 Z M 122.3125 747.714844 " fill-opacity="1" fill-rule="nonzero"/><path fill="#9e9985" d="M 1298.019531 747.714844 L 1377.683594 747.714844 L 1377.683594 752.015625 L 1298.019531 752.015625 Z M 1298.019531 747.714844 " fill-opacity="1" fill-rule="nonzero"/><path fill="#ffffff" d="M 858.21875 808 L 858.703125 808 L 858.703125 752.015625 L 750.570312 752.015625 L 750.570312 767.257812 L 826.417969 767.257812 L 826.417969 795.933594 L 826.25 795.875 C 812.6875 809.433594 778.789062 813.59375 761.097656 814.855469 C 757.585938 815.105469 754.070312 815.089844 750.566406 814.871094 L 750.566406 834.429688 C 806.097656 834.253906 854.085938 810.128906 858.21875 808 " fill-opacity="1" fill-rule="nonzero"/><path fill="#ffffff" d="M 826.25 720.699219 L 852.066406 714.351562 C 815.601562 668.746094 757.042969 665.09375 750.566406 664.828125 L 750.566406 682.394531 C 802.140625 682.699219 826.25 720.699219 826.25 720.699219 " fill-opacity="1" fill-rule="nonzero"/><path fill="#ffffff" d="M 638.144531 747.714844 L 671.632812 747.714844 C 672.613281 729.179688 697.699219 684.660156 746.269531 682.484375 L 746.269531 664.847656 C 643.273438 666.523438 638.335938 737.945312 638.144531 747.714844 " fill-opacity="1" fill-rule="nonzero"/><path fill="#ffffff" d="M 746.269531 834.300781 L 746.269531 814.589844 C 743.222656 814.21875 740.1875 813.722656 737.207031 812.957031 C 693.058594 801.636719 673.914062 769.859375 671.792969 752.144531 L 638.207031 752.144531 C 640.792969 821.339844 727.222656 832.652344 746.269531 834.300781 " fill-opacity="1" fill-rule="nonzero"/><path fill="#973904" d="M 638.140625 748.828125 C 638.140625 748.828125 638.128906 748.433594 638.144531 747.714844 L 627.484375 747.714844 L 627.484375 752.015625 L 638.207031 752.015625 C 638.167969 750.964844 638.140625 749.90625 638.140625 748.828125 " fill-opacity="1" fill-rule="nonzero"/><path fill="#973904" d="M 750.570312 747.714844 L 750.570312 682.394531 C 750.367188 682.394531 750.167969 682.378906 749.957031 682.378906 C 748.710938 682.378906 747.488281 682.429688 746.269531 682.484375 L 746.269531 747.714844 L 671.636719 747.714844 C 671.617188 748.089844 671.589844 748.476562 671.589844 748.828125 C 671.589844 749.828125 671.660156 750.894531 671.792969 752.015625 L 746.269531 752.015625 L 746.269531 814.460938 C 747.699219 814.636719 749.128906 814.78125 750.570312 814.871094 L 750.570312 767.257812 L 749.074219 767.257812 L 749.074219 750.050781 L 858.707031 750.050781 L 858.707031 752.015625 L 869.191406 752.015625 L 869.191406 747.714844 Z M 750.570312 747.714844 " fill-opacity="1" fill-rule="nonzero"/><path fill="#e4f318" d="M 961.441406 479.25 L 1024.855469 479.25 L 1024.855469 365.515625 L 728.109375 405.761719 C 734.832031 405.367188 741.597656 405.144531 748.417969 405.144531 C 828.808594 405.144531 902.816406 432.882812 961.441406 479.25 " fill-opacity="1" fill-rule="nonzero"/><path fill="#e4f318" d="M 750.570312 479.25 L 954.378906 479.25 C 897.738281 435.921875 827.140625 409.949219 750.570312 409.472656 Z M 750.570312 479.25 " fill-opacity="1" fill-rule="nonzero"/><path fill="#fe100b" d="M 746.269531 1020.480469 L 544.558594 1020.480469 C 600.839844 1062.847656 670.648438 1088.171875 746.269531 1088.644531 Z M 746.269531 1020.480469 " fill-opacity="1" fill-rule="nonzero"/><path fill="#973904" d="M 749.789062 1020.425781 C 750.050781 1020.425781 750.3125 1020.429688 750.566406 1020.433594 L 750.566406 834.429688 C 750.363281 834.429688 750.160156 834.4375 749.953125 834.4375 C 749.953125 834.4375 748.628906 834.378906 746.265625 834.175781 L 746.265625 1020.480469 L 749.730469 1020.480469 Z M 749.789062 1020.425781 " fill-opacity="1" fill-rule="nonzero"/><path fill="#973904" d="M 471.601562 945.640625 L 471.601562 952.941406 C 490.375 978.355469 512.578125 1001.078125 537.492188 1020.480469 L 544.558594 1020.480469 C 516.582031 999.421875 491.933594 974.175781 471.601562 945.640625 " fill-opacity="1" fill-rule="nonzero"/><path fill="#a80000" d="M 1083.550781 826.667969 L 1079.945312 823.105469 C 1046.203125 974.199219 911.5 1087.636719 750.574219 1088.648438 L 750.574219 1020.4375 C 750.308594 1020.433594 750.046875 1020.433594 749.789062 1020.429688 L 749.734375 1020.484375 L 746.269531 1020.484375 L 746.269531 1088.652344 C 670.648438 1088.175781 600.84375 1062.851562 544.5625 1020.484375 L 537.492188 1020.484375 C 595.777344 1065.878906 668.976562 1092.976562 748.421875 1092.976562 C 911.417969 1092.972656 1048.257812 979.046875 1083.550781 826.667969 " fill-opacity="1" fill-rule="nonzero"/><path fill="#e4f318" d="M 409.136719 765 C 412.253906 832.097656 434.9375 894.179688 471.601562 945.640625 L 471.601562 744.878906 L 471.667969 744.816406 C 474.378906 597.6875 594.503906 479.253906 742.316406 479.253906 C 743.640625 479.253906 744.953125 479.28125 746.269531 479.300781 L 746.269531 409.476562 C 564.613281 410.609375 416.332031 555 409.011719 735.101562 L 404.707031 735.101562 C 411.070312 576.472656 525.425781 445.175781 676.101562 412.816406 L 198.441406 477.605469 L 198.441406 1020.480469 L 471.601562 1020.480469 L 471.601562 952.941406 C 432.390625 899.847656 408.046875 835.136719 404.828125 765 Z M 409.136719 765 " fill-opacity="1" fill-rule="nonzero"/><path fill="#973904" d="M 409.136719 765 L 404.828125 765 C 408.046875 835.136719 432.390625 899.847656 471.601562 952.941406 L 471.601562 945.640625 C 434.9375 894.179688 412.253906 832.097656 409.136719 765 " fill-opacity="1" fill-rule="nonzero"/><path fill="#973904" d="M 676.101562 412.816406 L 728.109375 405.761719 C 710.382812 406.800781 693.015625 409.183594 676.101562 412.816406 " fill-opacity="1" fill-rule="nonzero"/><path fill="#973904" d="M 746.667969 479.308594 C 746.535156 479.304688 746.398438 479.304688 746.269531 479.300781 L 746.269531 664.851562 C 747.488281 664.832031 748.707031 664.808594 749.960938 664.808594 C 749.960938 664.808594 750.183594 664.8125 750.574219 664.828125 L 750.574219 479.253906 L 746.730469 479.253906 Z M 746.667969 479.308594 " fill-opacity="1" fill-rule="nonzero"/><path fill="#fe100b" d="M 1024.855469 479.25 L 1024.855469 544.679688 C 1042.1875 568.035156 1056.652344 593.636719 1067.671875 620.996094 L 1063.011719 620.996094 C 1052.964844 596.417969 1040.113281 573.285156 1024.855469 551.976562 L 1024.855469 754.859375 L 1024.796875 754.917969 C 1022.085938 902.046875 901.957031 1020.480469 754.140625 1020.480469 C 752.949219 1020.480469 751.757812 1020.457031 750.570312 1020.4375 L 750.570312 1088.644531 C 911.503906 1087.636719 1046.207031 974.199219 1079.945312 823.105469 L 1083.550781 826.671875 C 1048.257812 979.050781 911.414062 1092.972656 748.417969 1092.972656 C 668.976562 1092.972656 595.773438 1065.875 537.492188 1020.480469 L 471.601562 1020.480469 L 471.601562 1134.21875 L 1298.015625 1022.128906 L 1298.015625 479.25 Z M 1024.855469 479.25 " fill-opacity="1" fill-rule="nonzero"/><path fill="#973904" d="M 961.441406 479.25 L 954.378906 479.25 C 981.320312 499.855469 1005.101562 524.382812 1024.855469 551.976562 L 1024.855469 544.679688 C 1006.679688 520.183594 985.351562 498.160156 961.441406 479.25 " fill-opacity="1" fill-rule="nonzero"/><path fill="#a80000" d="M 1067.671875 620.996094 C 1056.652344 593.640625 1042.1875 568.039062 1024.855469 544.679688 L 1024.855469 551.976562 C 1040.113281 573.285156 1052.964844 596.421875 1063.011719 620.996094 Z M 1067.671875 620.996094 " fill-opacity="1" fill-rule="nonzero"/><path fill="#973904" d="M 748.417969 405.144531 C 741.601562 405.144531 734.832031 405.367188 728.109375 405.761719 L 676.101562 412.816406 C 525.425781 445.175781 411.070312 576.46875 404.707031 735.097656 L 409.011719 735.097656 C 416.332031 555 564.613281 410.609375 746.269531 409.476562 L 746.269531 479.296875 C 746.402344 479.300781 746.539062 479.304688 746.667969 479.304688 L 746.726562 479.25 L 750.570312 479.25 L 750.570312 409.476562 C 827.136719 409.949219 897.738281 435.921875 954.378906 479.25 L 961.441406 479.25 C 902.816406 432.882812 828.808594 405.144531 748.417969 405.144531 " fill-opacity="1" fill-rule="nonzero"/><path fill="#a80000" d="M 1087.707031 765 C 1087.574219 767.808594 1087.40625 770.609375 1087.210938 773.402344 C 1088.648438 774.214844 1090.019531 775.039062 1091.347656 775.867188 C 1091.628906 772.253906 1091.84375 768.636719 1092.007812 765 Z M 1087.707031 765 " fill-opacity="1" fill-rule="nonzero"/><path fill="#a80000" d="M 1073.621094 650.894531 C 1081.738281 677.722656 1086.617188 705.941406 1087.800781 735.097656 L 1092.109375 735.097656 C 1090.9375 705.960938 1086.128906 677.746094 1078.117188 650.894531 Z M 1073.621094 650.894531 " fill-opacity="1" fill-rule="nonzero"/><path fill="#9e9985" d="M 1079.945312 823.105469 L 1083.550781 826.667969 C 1087.375 810.152344 1090.007812 793.1875 1091.347656 775.867188 C 1090.019531 775.039062 1088.652344 774.214844 1087.214844 773.398438 C 1086.003906 790.339844 1083.554688 806.9375 1079.945312 823.105469 " fill-opacity="1" fill-rule="nonzero"/><path fill="#9e9985" d="M 1078.117188 650.894531 C 1075.078125 640.722656 1071.597656 630.746094 1067.667969 620.992188 L 1063.011719 620.992188 C 1067 630.742188 1070.539062 640.71875 1073.617188 650.894531 Z M 1078.117188 650.894531 " fill-opacity="1" fill-rule="nonzero"/><path fill="#9e9985" d="M 1087.707031 765 L 1092.011719 765 C 1092.207031 760.6875 1092.355469 756.363281 1092.394531 752.015625 L 1152.085938 752.015625 C 1153.90625 750.703125 1155.734375 749.265625 1157.546875 747.714844 L 1092.414062 747.714844 C 1092.394531 743.492188 1092.277344 739.289062 1092.113281 735.101562 L 1087.804688 735.101562 C 1087.976562 739.289062 1088.097656 743.492188 1088.109375 747.714844 L 869.191406 747.714844 L 869.191406 752.015625 L 1088.09375 752.015625 C 1088.054688 756.363281 1087.902344 760.6875 1087.707031 765 " fill-opacity="1" fill-rule="nonzero"/><path fill="#ffffff" d="M 1135.726562 878.246094 L 1215.558594 878.246094 L 1104.964844 785.4375 C 1104.964844 785.4375 1099.226562 780.75 1091.347656 775.867188 C 1090.003906 793.1875 1087.375 810.152344 1083.546875 826.667969 Z M 1135.726562 878.246094 " fill-opacity="1" fill-rule="nonzero"/><path fill="#ffffff" d="M 1087.800781 735.097656 L 919.964844 735.097656 L 919.964844 650.894531 L 1073.621094 650.894531 C 1070.539062 640.71875 1066.996094 630.742188 1063.011719 620.996094 L 869.183594 620.996094 L 869.183594 747.714844 L 1088.109375 747.714844 C 1088.097656 743.488281 1087.972656 739.285156 1087.800781 735.097656 " fill-opacity="1" fill-rule="nonzero"/><path fill="#ffffff" d="M 1062.484375 765 L 1087.707031 765 C 1087.90625 760.6875 1088.054688 756.363281 1088.089844 752.015625 L 869.1875 752.015625 L 869.1875 878.246094 L 919.96875 878.246094 L 919.96875 765.003906 L 997.296875 765.003906 C 997.296875 765.003906 1031.203125 774.734375 1048.507812 792.035156 L 1079.945312 823.109375 C 1083.554688 806.9375 1086.003906 790.34375 1087.210938 773.40625 C 1079.382812 768.960938 1070.222656 765 1062.484375 765 " fill-opacity="1" fill-rule="nonzero"/><path fill="#ffffff" d="M 1103.378906 650.894531 C 1103.378906 650.894531 1129.085938 660.832031 1129.734375 692.804688 C 1129.742188 693.207031 1129.75 693.617188 1129.75 694.035156 C 1129.75 726.984375 1103.378906 735.097656 1103.378906 735.097656 L 1092.109375 735.097656 C 1092.277344 739.285156 1092.398438 743.488281 1092.417969 747.714844 L 1157.542969 747.714844 C 1170.542969 736.597656 1182.722656 719.261719 1182.722656 693.300781 C 1182.722656 693.300781 1184.667969 639.480469 1125.101562 620.992188 L 1067.671875 620.992188 C 1071.597656 630.746094 1075.082031 640.722656 1078.117188 650.894531 Z M 1103.378906 650.894531 " fill-opacity="1" fill-rule="nonzero"/><path fill="#ffffff" d="M 1092.011719 765 L 1126.753906 765 C 1126.753906 765 1139.03125 761.476562 1152.085938 752.015625 L 1092.386719 752.015625 C 1092.355469 756.363281 1092.210938 760.6875 1092.011719 765 " fill-opacity="1" fill-rule="nonzero"/><path fill="#a80000" d="M 1298.019531 752.015625 L 1298.019531 747.714844 L 1157.539062 747.714844 C 1155.726562 749.265625 1153.898438 750.699219 1152.085938 752.015625 Z M 1298.019531 752.015625 " fill-opacity="1" fill-rule="nonzero"/><path fill="#9e9985" d="M 408.75 752.015625 L 627.484375 752.015625 L 627.484375 747.714844 L 408.730469 747.714844 C 408.75 743.511719 408.839844 739.328125 409.007812 735.160156 C 409.007812 735.140625 409.011719 735.121094 409.011719 735.097656 L 404.703125 735.097656 C 404.535156 739.285156 404.445312 743.492188 404.429688 747.714844 L 319.625 747.714844 L 319.625 752.015625 L 404.449219 752.015625 C 404.484375 756.363281 404.632812 760.6875 404.828125 765 L 409.136719 765 C 408.933594 760.6875 408.789062 756.367188 408.75 752.015625 " fill-opacity="1" fill-rule="nonzero"/><path fill="#ffffff" d="M 404.707031 735.097656 L 370.410156 735.097656 L 370.410156 620.996094 L 319.625 620.996094 L 319.625 747.714844 L 404.425781 747.714844 C 404.441406 743.492188 404.535156 739.285156 404.707031 735.097656 " fill-opacity="1" fill-rule="nonzero"/><path fill="#ffffff" d="M 576.707031 878.246094 L 627.488281 878.246094 L 627.488281 752.015625 L 408.753906 752.015625 C 408.792969 756.367188 408.9375 760.6875 409.136719 765 L 576.707031 765 Z M 576.707031 878.246094 " fill-opacity="1" fill-rule="nonzero"/><path fill="#ffffff" d="M 408.730469 747.714844 L 627.488281 747.714844 L 627.488281 620.996094 L 576.707031 620.996094 L 576.707031 735.097656 L 409.011719 735.097656 C 409.011719 735.121094 409.007812 735.140625 409.007812 735.160156 C 408.839844 739.328125 408.75 743.511719 408.730469 747.714844 " fill-opacity="1" fill-rule="nonzero"/><path fill="#ffffff" d="M 319.625 752.015625 L 319.625 878.246094 L 370.40625 878.246094 L 370.40625 765 L 404.828125 765 C 404.628906 760.6875 404.484375 756.363281 404.449219 752.015625 Z M 319.625 752.015625 " fill-opacity="1" fill-rule="nonzero"/><path fill="#973904" d="M 198.441406 747.714844 L 319.628906 747.714844 L 319.628906 752.015625 L 198.441406 752.015625 Z M 198.441406 747.714844 " fill-opacity="1" fill-rule="nonzero"/><path fill="#9e9985" d="M 749.957031 664.804688 C 748.707031 664.804688 747.488281 664.828125 746.269531 664.847656 L 746.269531 682.484375 C 747.488281 682.429688 748.710938 682.378906 749.957031 682.378906 C 750.167969 682.378906 750.363281 682.390625 750.570312 682.394531 L 750.570312 664.824219 C 750.1875 664.8125 749.957031 664.804688 749.957031 664.804688 " fill-opacity="1" fill-rule="nonzero"/><path fill="#9e9985" d="M 638.140625 748.828125 C 638.140625 749.90625 638.167969 750.964844 638.207031 752.015625 L 671.792969 752.015625 C 671.65625 750.894531 671.589844 749.824219 671.589844 748.828125 C 671.589844 748.476562 671.613281 748.089844 671.632812 747.714844 L 638.144531 747.714844 C 638.128906 748.433594 638.140625 748.828125 638.140625 748.828125 " fill-opacity="1" fill-rule="nonzero"/><path fill="#9e9985" d="M 858.703125 752.015625 L 858.703125 750.050781 L 749.070312 750.050781 L 749.070312 767.257812 L 750.570312 767.257812 L 750.570312 752.015625 Z M 858.703125 752.015625 " fill-opacity="1" fill-rule="nonzero"/><path fill="#9e9985" d="M 749.957031 834.4375 C 750.164062 834.4375 750.363281 834.429688 750.570312 834.429688 L 750.570312 814.875 C 749.128906 814.785156 747.699219 814.636719 746.269531 814.460938 L 746.269531 834.175781 C 748.628906 834.378906 749.957031 834.4375 749.957031 834.4375 " fill-opacity="1" fill-rule="nonzero"/></svg>