<?xml version="1.0" encoding="UTF-8" standalone="no"?>
<!-- Created with Inkscape (http://www.inkscape.org/) -->

<svg
   width="237.02322mm"
   height="193.2057mm"
   viewBox="0 0 237.02322 193.2057"
   version="1.1"
   id="svg1"
   xml:space="preserve"
   xmlns="http://www.w3.org/2000/svg"
   xmlns:svg="http://www.w3.org/2000/svg"><defs
     id="defs1" /><g
     id="layer1"
     transform="translate(399.29051,-102.24447)"><g
       id="g36"><g
         id="g35"><g
           id="g34"><path
             style="font-size:192.636px;font-family:'Race Sport';-inkscape-font-specification:'Race Sport';text-align:end;text-anchor:end;fill:#ca1411;fill-opacity:1;stroke-width:17.2282;stroke-linecap:round;stroke-linejoin:round;paint-order:stroke fill markers"
             d="m -176.58458,189.08978 c -1.81621,11.30242 -2.18045,24.23831 -13.57351,24.76677 h -50.29327 c -0.81037,0 -1.57009,0.30389 -2.27916,0.91166 -0.60777,0.50648 -1.01295,1.1649 -1.21554,1.97527 l -2.27916,11.39575 h 35.70672 c 2.73498,0 5.26737,0.60777 7.59717,1.82332 2.3298,1.11425 4.30506,2.63369 5.92579,4.55831 1.62073,1.92461 2.78563,4.15311 3.4947,6.6855 0.70907,2.4311 0.81036,5.01414 0.30389,7.74912 l -6.68552,32.36395 c -0.81036,4.15312 -2.83627,7.54652 -6.07774,10.18021 -3.24145,2.63369 -6.98939,3.95053 -11.24381,3.95053 h -52.72437 c -2.83628,0 -5.46997,-0.55713 -7.90106,-1.67138 -2.3298,-1.21555 -4.30506,-2.78563 -5.92579,-4.71024 -1.51943,-2.02592 -2.63369,-4.30507 -3.34276,-6.83746 -0.70907,-2.63369 -0.81037,-5.31802 -0.30388,-8.05299 l 14.28268,-70.80565 c 0.81037,-4.25441 2.83628,-7.69845 6.07774,-10.33214 3.24145,-2.63369 6.98939,-3.95053 11.24381,-3.95053 z m -76.47809,80.22612 c 0.70907,0.91167 1.62073,1.3675 2.73498,1.3675 h 17.92932 c 1.82332,0 2.98822,-0.96231 3.4947,-2.88694 l 2.88693,-14.13072 c 0.20259,-1.11426 -0.0506,-2.07657 -0.75971,-2.88694 -0.70908,-0.91165 -1.62074,-1.36748 -2.73499,-1.36748 h -20.9682 l -3.34275,17.01766 c -0.20259,1.11425 0.0506,2.07656 0.75972,2.88692 z"
             id="path11"
             aria-label="6" /><g
             id="g16"
             style="fill:#ffffff"
             transform="translate(10.960903,-279.39999)"><g
               id="g13"
               transform="translate(-80.164198,338.79926)"
               style="fill:#ffffff"><path
                 style="color:#000000;fill:#ffffff;stroke-linecap:round;stroke-linejoin:round;-inkscape-stroke:none;paint-order:stroke fill markers"
                 d="m -325.77734,57.634766 c -1.35796,0.860748 -2.37252,3.092738 -3.02344,6.048828 -0.65092,2.956089 -0.91186,6.645854 -0.63086,10.429687 0.49781,6.703256 2.70556,13.704761 7.53125,17.373047 -1.86115,-0.843305 -3.53454,-2.01678 -4.73047,-3.28125 -0.82245,-0.869585 -1.4654,-1.692148 -1.9043,-2.269531 -0.21944,-0.288692 -0.38692,-0.515509 -0.50586,-0.66211 -0.0595,-0.0733 -0.10056,-0.122628 -0.16015,-0.169921 -0.0149,-0.01182 -0.0308,-0.02426 -0.0586,-0.03711 -0.0278,-0.01285 -0.0721,-0.03112 -0.14062,-0.01563 -0.0685,0.0155 -0.12966,0.08022 -0.14844,0.125 -0.0188,0.04478 -0.0197,0.07242 -0.0195,0.0957 -2.10334,7.93376 2.38785,18.277534 9.85742,23.630854 6.11467,4.38228 14.10164,5.581 19.62891,10.17774 2.7e-4,2.2e-4 -2.7e-4,0.002 0,0.002 0.75665,0.69692 1.05944,1.36623 1.13086,2.04297 0.0715,0.67723 -0.0965,1.37324 -0.32813,2.08789 -3.97949,11.37589 -4.99694,18.92819 -4.79687,23.91211 0.20011,4.98486 1.62511,7.40583 2.51172,8.48242 a 0.20002,0.20002 0 0 0 0.27539,0.0312 c 5.24879,-4.0084 10.04405,-5.47944 13.875,-5.35156 3.83095,0.12788 6.69867,1.84922 8.13476,4.24414 1.4361,2.39492 1.45642,5.46888 -0.46875,8.37305 -1.92516,2.90416 -5.81446,5.63503 -12.20312,7.25586 a 0.20002,0.20002 0 0 0 0.0215,0.39257 c 11.65709,1.63241 18.84847,4.54837 23.61133,8.08789 4.76287,3.53953 7.11088,7.70636 9.07031,11.9004 1.95943,4.19403 3.52402,8.41671 6.73047,12 3.20645,3.58328 8.04993,6.50538 16.51367,8.11328 a 0.20002,0.20002 0 0 0 0.21485,-0.28907 c -5.03167,-9.44863 -2.3418,-17.39373 2.24804,-25.05664 4.58985,-7.6629 11.09487,-14.9898 13.59375,-23.10937 a 0.20002,0.20002 0 0 0 0,-0.004 c 1.79137,-6.18803 2.93919,-16.49397 6.03125,-25.33789 1.54604,-4.42196 3.57682,-8.47402 6.39844,-11.45508 2.81996,-2.97929 6.42232,-4.89591 11.16406,-5.07812 h 90.54688 a 0.20002,0.20002 0 0 0 0.19531,-0.16211 l 5.03516,-25.451171 a 0.20002,0.20002 0 0 0 -0.19531,-0.238281 h -118.01368 a 0.20002,0.20002 0 0 0 -0.0469,0.0059 c -10.92151,2.724836 -19.00049,2.737406 -24.77734,1.054687 -5.77686,-1.682719 -9.25837,-5.048596 -11.0293,-9.126953 -3.54187,-8.156714 -0.17667,-19.2277 5.7832,-25.191406 A 0.20002,0.20002 0 0 0 -248.9707,60.875 c -16.80685,-2.290166 -30.63707,4.784298 -42.90235,8.462891 -6.13263,1.839296 -11.86666,2.829599 -17.39453,1.417968 -5.52787,-1.41163 -10.87325,-5.222664 -16.23633,-13.064453 a 0.20002,0.20002 0 0 0 -0.27343,-0.05664 z m 0.10156,0.484375 c 5.34697,7.740025 10.73007,11.600326 16.31055,13.02539 5.6355,1.439115 11.44699,0.423804 17.60742,-1.423828 12.23332,-3.669011 25.87787,-10.59924 42.38672,-8.474609 -5.91499,6.141052 -9.21274,17.080452 -5.63477,25.320312 1.81542,4.180815 5.40987,7.638787 11.2832,9.34961 5.86776,1.709196 14.00666,1.685259 24.95704,-1.042969 h 117.74999 l -4.95703,25.050783 h -90.38086 a 0.20002,0.20002 0 0 0 -0.008,0 c -4.84626,0.18407 -8.56727,2.1604 -11.44726,5.20312 -2.87999,3.04272 -4.92748,7.14463 -6.48438,11.59766 -3.11379,8.90606 -4.26813,19.24194 -6.03906,25.35937 -2.46177,7.99622 -8.93574,15.31128 -13.55274,23.01954 -4.55388,7.60287 -7.25094,15.64747 -2.42968,25.06054 -8.13892,-1.61202 -12.81458,-4.43366 -15.90625,-7.88867 -3.14525,-3.51489 -4.69769,-7.69122 -6.66602,-11.9043 -1.96832,-4.21308 -4.36018,-8.46095 -9.19336,-12.05273 -4.71417,-3.50334 -11.80836,-6.35781 -23.00781,-8.01758 5.96906,-1.65916 9.76065,-4.29265 11.67187,-7.17578 1.99821,-3.01435 1.99394,-6.27488 0.48047,-8.79883 -1.51346,-2.52395 -4.52062,-4.30583 -8.46484,-4.4375 -3.89627,-0.13006 -8.71147,1.36759 -13.94141,5.3086 -0.83975,-1.05858 -2.14251,-3.32018 -2.33398,-8.08985 -0.19728,-4.91431 0.80524,-12.42016 4.77539,-23.76758 a 0.20002,0.20002 0 0 0 0.002,-0.004 c 0.2374,-0.73233 0.42694,-1.48417 0.34571,-2.25391 -0.0812,-0.76973 -0.44341,-1.54737 -1.25782,-2.29687 a 0.20002,0.20002 0 0 0 -0.008,-0.006 c -5.64586,-4.70039 -13.64786,-5.89561 -19.6582,-10.20313 -7.23734,-5.18689 -11.60896,-15.21652 -9.75586,-22.892576 0.10367,0.134025 0.20935,0.273658 0.37695,0.49414 0.44201,0.581481 1.09611,1.41726 1.9336,2.302735 1.65947,1.754575 4.05326,3.697782 6.98828,4.253906 0.008,0.0038 0.0138,0.0098 0.0215,0.01367 l 0.002,-0.0039 c 0.0188,0.0035 0.032,0.0181 0.0508,0.02148 a 0.20002,0.20002 0 0 0 0.125,-0.376953 c -6.02671,-2.995728 -8.7424,-10.812015 -9.29883,-18.304688 -0.27822,-3.746336 -0.0177,-7.404788 0.62304,-10.314453 0.61822,-2.807582 1.62153,-4.844824 2.73438,-5.65039 z"
                 id="path12" /><path
                 style="color:#000000;fill:#ffffff;stroke-linecap:round;stroke-linejoin:round;-inkscape-stroke:none;paint-order:stroke fill markers"
                 d="m -325.66935,57.803726 c 21.52416,31.472211 43.19673,-1.292362 76.67207,3.269116 -12.04081,12.048558 -13.56265,44.521818 30.2127,33.600185 h 118.01264 l -5.03545,25.450223 h -90.54655 c -19.18436,0.72866 -20.22275,29.71159 -23.78505,42.01707 -4.9601,16.11674 -25.96228,29.28614 -15.82707,48.31839 -33.73581,-6.40895 -9.22233,-33.56224 -55.93554,-40.10373 25.68725,-6.51694 11.59885,-30.99347 -9.50809,-14.87452 -1.72062,-2.08932 -5.63084,-9.47958 2.32067,-32.20648 0.46906,-1.44698 0.71526,-2.89395 -0.85702,-4.34092 -5.58671,-4.65114 -13.58411,-5.84825 -19.648,-10.19414 -7.41679,-5.3155 -11.87974,-15.638967 -9.77342,-23.46831 -0.004,-0.491097 3.73139,6.25189 9.54408,7.297512 -12.25775,-6.093023 -10.88554,-31.570044 -5.84597,-34.764396 z"
                 id="path13" /></g><g
               id="g15"
               transform="translate(293.35503)"
               style="fill:#ffffff"><path
                 style="color:#000000;fill:#ffffff;-inkscape-stroke:none"
                 d="m -671.68157,504.53732 c -5.10093,-0.70723 -6.07971,-7.15677 0.20858,-7.1634 1.2665,-10e-4 1.61784,-0.14846 3.70417,-1.55115 3.1859,-2.14196 4.91607,-2.96924 6.56593,-3.13952 3.57954,-0.36945 3.87909,3.18246 3.73404,5.10027 -0.51752,6.84279 -14.02324,6.78613 -14.21272,6.7538 z"
                 id="path14" /><path
                 style="color:#000000;fill:#ffffff;-inkscape-stroke:none"
                 d="m -661.25391,492.18555 c -1.77885,0.18359 -3.58698,1.06719 -6.79296,3.22265 -1.03912,0.69862 -1.63554,1.07017 -2.07422,1.25391 -0.43868,0.18374 -0.73769,0.21045 -1.35157,0.21094 -1.65755,0.002 -2.90382,0.42944 -3.73046,1.14453 -0.82665,0.71509 -1.2005,1.71402 -1.14454,2.70312 0.1117,1.97411 1.84097,3.9215 4.58204,4.3086 h 0.004 c 0.11128,0.0186 0.0875,0.009 0.12305,0.01 0.0367,10e-4 0.0831,0.002 0.14062,0.002 0.11498,5.4e-4 0.27236,5.4e-4 0.47071,-0.004 0.39669,-0.009 0.95132,-0.0308 1.61132,-0.0801 1.32001,-0.0985 3.06601,-0.30478 4.83594,-0.73242 1.76993,-0.42764 3.56474,-1.07325 4.98828,-2.08789 1.42355,-1.01464 2.47938,-2.44259 2.6211,-4.31641 0.0762,-1.00786 0.0526,-2.4373 -0.51563,-3.65625 -0.56826,-1.21894 -1.81362,-2.18018 -3.76758,-1.97851 z m 0.10157,0.99414 c 1.62558,-0.16778 2.31963,0.4641 2.75976,1.4082 0.44014,0.9441 0.49461,2.24826 0.42578,3.1582 -0.11704,1.54757 -0.94482,2.67792 -2.20507,3.57618 -1.26026,0.89825 -2.94966,1.52018 -4.64454,1.92968 -1.69487,0.40951 -3.39205,0.6114 -4.67382,0.70703 -0.64089,0.0478 -1.17841,0.0696 -1.5586,0.0781 -0.19009,0.004 -0.34138,0.004 -0.44531,0.004 -0.052,-2.5e-4 -0.0916,6.9e-4 -0.11719,0 -0.0111,-3.1e-4 0.0156,0.004 0.006,0.002 h -0.008 c -2.34998,-0.32582 -3.6557,-1.95387 -3.73633,-3.37891 -0.0403,-0.71251 0.20178,-1.3705 0.80078,-1.88867 0.59901,-0.51816 1.58959,-0.90078 3.07617,-0.90234 0.65262,-5.2e-4 1.16309,-0.0462 1.73829,-0.28711 0.57519,-0.24092 1.19692,-0.64359 2.24414,-1.34766 3.1658,-2.12845 4.81703,-2.90163 6.33789,-3.05859 z"
                 id="path15" /></g></g><g
             id="g17"
             style="fill:#ffffff"
             transform="translate(10.960903,-279.39999)"><path
               style="color:#000000;fill:#ffffff;stroke-linecap:round;stroke-linejoin:round;-inkscape-stroke:none;paint-order:stroke fill markers"
               d="m -284.83789,398 a 0.20210721,0.20210721 0 0 0 -0.17969,0.29297 c 4.08093,8.1589 3.62494,16.61518 -0.006,25.33203 a 0.20210721,0.20210721 0 0 0 0.18555,0.28125 H -178.756 a 0.20210721,0.20210721 0 0 0 0.19727,-0.16211 l 5.32617,-25.5 A 0.20210721,0.20210721 0 0 0 -173.42969,398 Z m 0.28711,0.4043 h 110.87305 l -5.24219,25.09765 h -105.64063 c 3.5136,-8.59154 3.94878,-17.00472 0.01,-25.09765 z"
               id="path16" /><path
               style="color:#000000;fill:#ffffff;stroke-linecap:round;stroke-linejoin:round;-inkscape-stroke:none;paint-order:stroke fill markers"
               d="m -284.83712,398.20199 h 111.40713 l -5.32646,25.50133 h -106.08067 c 3.64639,-8.75429 4.10869,-17.28692 0,-25.50133 z"
               id="path17" /></g><path
             style="color:#000000;fill:#808080;-inkscape-stroke:none"
             d="m -306.81541,150.56096 c -9.79058,-1.60861 -14.80425,-9.46847 -11.93444,-19.01354 4.26921,-12.14566 17.69483,-6.36173 20.70485,-11.10806 2.74494,-4.32831 -3.83499,-13.8534 -10.54756,-15.21204 -0.90826,-0.18383 -1.66576,-0.4533 -1.68333,-0.59882 -0.2172,-1.80004 24.81548,-7.21921 31.1104,15.38074 4.8605,17.45014 -1.18125,33.4035 -27.64992,30.55169 z"
             id="path18" /><path
             style="color:#000000;fill:#808080;-inkscape-stroke:none"
             d="m -302.18949,102.24454 c -1.59431,0.008 -3.05014,0.14871 -4.28516,0.35742 -1.23501,0.20871 -2.24723,0.48394 -2.97461,0.78125 -0.36369,0.14866 -0.65503,0.29833 -0.88671,0.47657 -0.23169,0.17823 -0.48423,0.4247 -0.43555,0.82812 0.0267,0.22131 0.13256,0.31157 0.20117,0.37305 0.0686,0.0615 0.13105,0.0991 0.19531,0.13476 0.12853,0.0712 0.271,0.12953 0.43946,0.18946 0.33691,0.11985 0.76994,0.23605 1.24414,0.33203 3.16474,0.64055 6.42657,3.28119 8.50781,6.28711 1.04062,1.50295 1.78636,3.09268 2.10351,4.53125 0.31716,1.43856 0.20671,2.70098 -0.38671,3.63672 -0.63788,1.00582 -1.87371,1.49872 -3.57227,1.80468 -1.69856,0.30597 -3.79581,0.41 -5.96289,0.74805 -2.16708,0.33805 -4.41469,0.91413 -6.4082,2.21094 -1.99352,1.2968 -3.71194,3.31984 -4.81055,6.44531 l -0.004,0.0117 -0.004,0.01 c -1.46892,4.88566 -0.92675,9.40276 1.27539,12.89454 3.85065,6.1057 11.14283,6.76326 11.63863,6.77551 12.98395,1.27264 21.20438,-1.98391 25.47656,-7.88086 4.33842,-5.98837 4.60948,-14.50182 2.1543,-23.31641 -3.1962,-11.47495 -11.24296,-15.93065 -18.39258,-17.19922 -1.7874,-0.31714 -3.51897,-0.43991 -5.11328,-0.43164 z m 0.004,1.00195 c 1.53929,-0.008 3.21401,0.10861 4.93554,0.41407 6.88614,1.22182 14.5048,5.35744 17.60352,16.48242 2.40531,8.63553 2.08449,16.82501 -2,22.46289 -4.08293,5.63571 -11.97907,8.86775 -25.10156,7.45703 -4.77279,-0.78768 -8.32658,-3.07557 -10.35938,-6.29883 -2.03224,-3.22238 -2.56204,-7.40255 -1.16797,-12.05469 1.036,-2.94457 2.59452,-4.75318 4.41211,-5.93554 1.81856,-1.183 3.9164,-1.73308 6.01563,-2.06055 2.09922,-0.32746 4.1876,-0.42795 5.98632,-0.75195 1.79873,-0.32401 3.37115,-0.88657 4.23829,-2.25391 0.77904,-1.22842 0.87386,-2.77953 0.51953,-4.38672 -0.35434,-1.60718 -1.1575,-3.29558 -2.25782,-4.88476 -2.20063,-3.17836 -5.58498,-5.98113 -9.13281,-6.69922 -0.3621,-0.0733 -0.66293,-0.16232 -0.92383,-0.2461 0.11413,-0.0619 0.1823,-0.11405 0.34766,-0.18164 0.62461,-0.2553 1.58211,-0.52331 2.76172,-0.72265 1.17961,-0.19935 2.58375,-0.3318 4.12305,-0.33985 z"
             id="path19" /></g></g></g></g></svg>
