<svg xmlns="http://www.w3.org/2000/svg" xmlns:xlink="http://www.w3.org/1999/xlink" width="2000" zoomAndPan="magnify" viewBox="0 0 1500 1499.999933" height="2000" preserveAspectRatio="xMidYMid meet" version="1.0"><path fill="#f50f0d" d="M 125.011719 683.753906 L 125.011719 721.480469 L 140.171875 723.492188 L 140.171875 727.425781 L 98.730469 727.425781 L 98.730469 723.492188 L 110.601562 721.480469 L 110.601562 633.6875 L 97.761719 631.75 L 97.761719 627.8125 L 140.996094 627.8125 C 153.539062 627.8125 162.796875 629.921875 168.773438 634.128906 C 174.746094 638.339844 177.734375 645.097656 177.734375 654.410156 C 177.734375 661.046875 175.917969 666.78125 172.285156 671.605469 C 168.648438 676.433594 163.621094 679.785156 157.199219 681.664062 L 184.316406 721.480469 L 195.144531 723.492188 L 195.144531 727.425781 L 171.167969 727.425781 L 143.019531 683.753906 Z M 162.882812 655.453125 C 162.882812 647.875 161.023438 642.492188 157.316406 639.296875 C 153.601562 636.097656 147.09375 634.496094 137.792969 634.496094 L 125.011719 634.496094 L 125.011719 677.070312 L 138.234375 677.070312 C 147.144531 677.070312 153.480469 675.425781 157.242188 672.132812 C 161.003906 668.839844 162.882812 663.277344 162.882812 655.453125 " fill-opacity="1" fill-rule="nonzero"/><path fill="#f50f0d" d="M 230.085938 656.039062 C 237.757812 656.039062 243.390625 657.601562 246.996094 660.722656 C 250.609375 663.835938 252.414062 668.617188 252.414062 675.054688 L 252.414062 722.226562 L 261.15625 724.078125 L 261.15625 727.425781 L 241.882812 727.425781 L 240.457031 720.449219 C 234.789062 726.089844 227.546875 728.910156 218.730469 728.910156 C 206.734375 728.910156 200.734375 721.976562 200.734375 708.113281 C 200.734375 703.453125 201.640625 699.605469 203.453125 696.558594 C 205.273438 693.511719 208.171875 691.191406 212.148438 689.582031 C 216.136719 687.976562 221.910156 687.097656 229.484375 686.9375 L 240.015625 686.644531 L 240.015625 675.730469 C 240.015625 670.925781 239.128906 667.386719 237.359375 665.113281 C 235.59375 662.835938 232.871094 661.691406 229.191406 661.691406 C 224.203125 661.691406 219.648438 662.851562 215.527344 665.171875 L 212.988281 673.867188 L 208.800781 673.867188 L 208.800781 658.636719 C 216.871094 656.90625 223.964844 656.039062 230.085938 656.039062 M 240.015625 691.84375 L 230.234375 692.136719 C 223.566406 692.394531 219.042969 693.683594 216.675781 696.015625 C 214.3125 698.332031 213.136719 702.222656 213.136719 707.671875 C 213.136719 716.390625 216.695312 720.746094 223.816406 720.746094 C 227.195312 720.746094 230.117188 720.363281 232.582031 719.601562 C 235.050781 718.828125 237.527344 717.847656 240.015625 716.660156 Z M 240.015625 691.84375 " fill-opacity="1" fill-rule="nonzero"/><path fill="#f50f0d" d="M 317.222656 722.226562 C 311.601562 726.683594 305.03125 728.910156 297.511719 728.910156 C 278.34375 728.910156 268.761719 717 268.761719 693.179688 C 268.761719 680.953125 271.472656 671.65625 276.898438 665.292969 C 282.324219 658.929688 290.316406 655.746094 300.875 655.746094 C 306.25 655.746094 311.703125 656.316406 317.222656 657.449219 C 316.929688 655.816406 316.78125 651.707031 316.78125 645.128906 L 316.78125 626.992188 L 304.988281 625.214844 L 304.988281 621.863281 L 329.183594 621.863281 L 329.183594 722.226562 L 337.832031 724.078125 L 337.832031 727.425781 L 318.121094 727.425781 Z M 282.203125 693.179688 C 282.203125 702.589844 283.792969 709.609375 286.976562 714.238281 C 290.167969 718.871094 295.046875 721.183594 301.621094 721.183594 C 307.242188 721.183594 312.292969 720.222656 316.78125 718.292969 L 316.78125 663.101562 C 312.34375 662.261719 307.292969 661.839844 301.621094 661.839844 C 288.671875 661.839844 282.203125 672.289062 282.203125 693.179688 " fill-opacity="1" fill-rule="nonzero"/><path fill="#f50f0d" d="M 368.011719 634.800781 C 368.011719 636.976562 367.210938 638.855469 365.617188 640.441406 C 364.019531 642.027344 362.105469 642.820312 359.875 642.820312 C 357.675781 642.820312 355.78125 642.027344 354.1875 640.441406 C 352.601562 638.855469 351.808594 636.976562 351.808594 634.800781 C 351.808594 632.570312 352.601562 630.660156 354.1875 629.074219 C 355.78125 627.492188 357.675781 626.695312 359.875 626.695312 C 362.105469 626.695312 364.019531 627.492188 365.617188 629.074219 C 367.210938 630.660156 368.011719 632.570312 368.011719 634.800781 M 367.261719 722.226562 L 379.277344 724.078125 L 379.277344 727.425781 L 342.921875 727.425781 L 342.921875 724.078125 L 354.863281 722.226562 L 354.863281 662.792969 L 344.933594 660.945312 L 344.933594 657.59375 L 367.261719 657.59375 Z M 367.261719 722.226562 " fill-opacity="1" fill-rule="nonzero"/><path fill="#f50f0d" d="M 452.835938 692.136719 C 452.835938 716.652344 441.882812 728.910156 419.976562 728.910156 C 409.429688 728.910156 401.464844 725.765625 396.089844 719.480469 C 390.710938 713.1875 388.023438 704.070312 388.023438 692.136719 C 388.023438 680.359375 390.710938 671.351562 396.089844 665.113281 C 401.464844 658.871094 409.628906 655.746094 420.578125 655.746094 C 431.230469 655.746094 439.269531 658.808594 444.699219 664.921875 C 450.125 671.03125 452.835938 680.105469 452.835938 692.136719 M 439.394531 692.136719 C 439.394531 681.445312 437.820312 673.703125 434.679688 668.902344 C 431.542969 664.097656 426.640625 661.691406 419.972656 661.691406 C 413.449219 661.691406 408.734375 663.996094 405.828125 668.597656 C 402.917969 673.199219 401.464844 681.042969 401.464844 692.136719 C 401.464844 703.386719 402.941406 711.351562 405.898438 716.03125 C 408.855469 720.710938 413.546875 723.050781 419.972656 723.050781 C 426.542969 723.050781 431.421875 720.621094 434.605469 715.765625 C 437.796875 710.914062 439.394531 703.03125 439.394531 692.136719 " fill-opacity="1" fill-rule="nonzero"/><path fill="#f50f0d" d="M 530.199219 651.957031 C 530.199219 645.871094 528.277344 641.4375 524.441406 638.664062 C 520.609375 635.886719 514.390625 634.496094 505.785156 634.496094 L 490.316406 634.496094 L 490.316406 672.164062 L 506.679688 672.164062 C 514.738281 672.164062 520.671875 670.578125 524.484375 667.40625 C 528.292969 664.234375 530.199219 659.085938 530.199219 651.957031 M 537.734375 699.054688 C 537.734375 692.074219 535.390625 686.964844 530.710938 683.722656 C 526.042969 680.472656 518.550781 678.847656 508.238281 678.847656 L 490.316406 678.847656 L 490.316406 720.746094 C 497.191406 721.039062 504.507812 721.1875 512.277344 721.1875 C 520.785156 721.1875 527.15625 719.394531 531.386719 715.8125 C 535.621094 712.21875 537.734375 706.632812 537.734375 699.054688 M 463.066406 727.425781 L 463.066406 723.492188 L 475.902344 721.480469 L 475.902344 633.6875 L 463.066406 631.75 L 463.066406 627.8125 L 508.839844 627.8125 C 521.53125 627.8125 530.816406 629.683594 536.691406 633.421875 C 542.566406 637.164062 545.503906 643.09375 545.503906 651.207031 C 545.503906 657.050781 543.699219 662.03125 540.085938 666.144531 C 536.476562 670.253906 531.417969 673.007812 524.894531 674.398438 C 533.902344 675.335938 540.871094 677.949219 545.800781 682.238281 C 550.734375 686.519531 553.203125 692.027344 553.203125 698.761719 C 553.203125 708.316406 549.875 715.558594 543.230469 720.480469 C 536.578125 725.410156 526.882812 727.867188 514.140625 727.867188 L 482.175781 727.425781 Z M 463.066406 727.425781 " fill-opacity="1" fill-rule="nonzero"/><path fill="#f50f0d" d="M 610.242188 655.746094 L 610.242188 674.617188 L 607.039062 674.617188 L 602.703125 666.4375 C 600.214844 666.4375 597.261719 666.773438 593.847656 667.449219 C 590.4375 668.117188 587.488281 668.992188 585.003906 670.078125 L 585.003906 722.226562 L 597.035156 724.078125 L 597.035156 727.425781 L 563.71875 727.425781 L 563.71875 724.078125 L 572.605469 722.226562 L 572.605469 662.792969 L 563.71875 660.945312 L 563.71875 657.59375 L 584.179688 657.59375 L 584.855469 666.289062 C 587.839844 663.816406 591.882812 661.441406 596.992188 659.167969 C 602.089844 656.886719 606.132812 655.746094 609.125 655.746094 Z M 610.242188 655.746094 " fill-opacity="1" fill-rule="nonzero"/><path fill="#f50f0d" d="M 639.898438 634.800781 C 639.898438 636.976562 639.097656 638.855469 637.5 640.441406 C 635.90625 642.027344 633.992188 642.820312 631.757812 642.820312 C 629.5625 642.820312 627.667969 642.027344 626.074219 640.441406 C 624.488281 638.855469 623.691406 636.976562 623.691406 634.800781 C 623.691406 632.570312 624.488281 630.660156 626.074219 629.074219 C 627.667969 627.492188 629.5625 626.695312 631.757812 626.695312 C 633.992188 626.695312 635.90625 627.492188 637.5 629.074219 C 639.097656 630.660156 639.898438 632.570312 639.898438 634.800781 M 639.148438 722.226562 L 651.164062 724.078125 L 651.164062 727.425781 L 614.808594 727.425781 L 614.808594 724.078125 L 626.75 722.226562 L 626.75 662.792969 L 616.816406 660.945312 L 616.816406 657.59375 L 639.148438 657.59375 Z M 639.148438 722.226562 " fill-opacity="1" fill-rule="nonzero"/><path fill="#f50f0d" d="M 708.0625 722.226562 C 702.441406 726.683594 695.871094 728.910156 688.351562 728.910156 C 669.183594 728.910156 659.601562 717 659.601562 693.179688 C 659.601562 680.953125 662.3125 671.65625 667.742188 665.292969 C 673.164062 658.929688 681.15625 655.746094 691.714844 655.746094 C 697.089844 655.746094 702.542969 656.316406 708.0625 657.449219 C 707.769531 655.816406 707.625 651.707031 707.625 645.128906 L 707.625 626.992188 L 695.828125 625.214844 L 695.828125 621.863281 L 720.023438 621.863281 L 720.023438 722.226562 L 728.675781 724.078125 L 728.675781 727.425781 L 708.960938 727.425781 Z M 673.042969 693.179688 C 673.042969 702.589844 674.632812 709.609375 677.816406 714.238281 C 681.007812 718.871094 685.890625 721.183594 692.464844 721.183594 C 698.082031 721.183594 703.136719 720.222656 707.625 718.292969 L 707.625 663.101562 C 703.1875 662.261719 698.132812 661.839844 692.464844 661.839844 C 679.515625 661.839844 673.042969 672.289062 673.042969 693.179688 " fill-opacity="1" fill-rule="nonzero"/><path fill="#f50f0d" d="M 795.519531 679.667969 C 795.519531 687.6875 793.097656 693.753906 788.261719 697.867188 C 783.433594 701.976562 776.488281 704.03125 767.429688 704.03125 C 763.347656 704.03125 759.5625 703.660156 756.089844 702.917969 L 751.375 712.636719 C 751.53125 713.480469 752.507812 714.277344 754.300781 715.019531 C 756.089844 715.765625 758.328125 716.132812 761.011719 716.132812 L 781.769531 716.132812 C 789.339844 716.132812 794.949219 717.769531 798.605469 721.039062 C 802.265625 724.308594 804.097656 728.816406 804.097656 734.566406 C 804.097656 739.761719 802.636719 744.289062 799.71875 748.148438 C 796.808594 752.015625 792.542969 755 786.925781 757.109375 C 781.300781 759.210938 774.480469 760.265625 766.460938 760.265625 C 756.902344 760.265625 749.621094 758.800781 744.617188 755.875 C 739.613281 752.957031 737.109375 748.796875 737.109375 743.390625 C 737.109375 740.765625 738.003906 738.175781 739.800781 735.621094 C 741.589844 733.074219 744.875 730.09375 749.65625 726.679688 C 746.824219 725.738281 744.433594 724.132812 742.488281 721.859375 C 740.546875 719.582031 739.578125 717.128906 739.578125 714.503906 L 751.375 701.285156 C 743.507812 697.617188 739.578125 690.410156 739.578125 679.667969 C 739.578125 672.042969 742 666.152344 746.851562 661.988281 C 751.703125 657.828125 758.765625 655.746094 768.03125 655.746094 C 769.871094 655.746094 772.238281 655.933594 775.128906 656.304688 C 778.011719 656.679688 780.226562 657.109375 781.769531 657.597656 L 798.28125 649.355469 L 800.894531 652.542969 L 790.507812 663.25 C 793.847656 666.960938 795.519531 672.4375 795.519531 679.667969 M 792.449219 736.855469 C 792.449219 734.035156 791.574219 731.832031 789.832031 730.246094 C 788.089844 728.660156 785.449219 727.867188 781.914062 727.867188 L 754.738281 727.867188 C 752.652344 729.648438 750.945312 731.914062 749.625 734.667969 C 748.304688 737.417969 747.640625 739.984375 747.640625 742.363281 C 747.640625 746.621094 749.183594 749.675781 752.269531 751.527344 C 755.355469 753.382812 760.082031 754.320312 766.457031 754.320312 C 774.773438 754.320312 781.179688 752.78125 785.6875 749.707031 C 790.195312 746.640625 792.449219 742.355469 792.449219 736.855469 M 767.578125 698.378906 C 773.011719 698.378906 776.863281 696.832031 779.125 693.738281 C 781.386719 690.644531 782.515625 685.953125 782.515625 679.667969 C 782.515625 673.082031 781.347656 668.386719 779.003906 665.585938 C 776.664062 662.785156 772.910156 661.386719 767.738281 661.386719 C 762.507812 661.386719 758.675781 662.800781 756.238281 665.628906 C 753.800781 668.449219 752.578125 673.128906 752.578125 679.667969 C 752.578125 686.199219 753.773438 690.953125 756.164062 693.929688 C 758.554688 696.894531 762.355469 698.378906 767.578125 698.378906 " fill-opacity="1" fill-rule="nonzero"/><path fill="#f50f0d" d="M 826.429688 692.296875 L 826.429688 693.632812 C 826.429688 700.472656 827.183594 705.78125 828.707031 709.570312 C 830.222656 713.351562 832.558594 716.230469 835.714844 718.21875 C 838.875 720.195312 843.019531 721.183594 848.152344 721.183594 C 850.847656 721.183594 854.035156 720.964844 857.71875 720.523438 C 861.398438 720.074219 864.433594 719.578125 866.828125 719.027344 L 866.828125 723.195312 C 864.433594 724.722656 861.183594 726.058594 857.074219 727.207031 C 852.96875 728.339844 848.777344 728.910156 844.496094 728.910156 C 833.597656 728.910156 825.621094 725.984375 820.566406 720.140625 C 815.515625 714.296875 812.988281 704.914062 812.988281 691.988281 C 812.988281 679.808594 815.546875 670.722656 820.671875 664.734375 C 825.800781 658.742188 833.121094 655.746094 842.632812 655.746094 C 860.601562 655.746094 869.589844 665.898438 869.589844 686.203125 L 869.589844 692.296875 Z M 842.632812 661.691406 C 837.453125 661.691406 833.480469 663.773438 830.71875 667.933594 C 827.957031 672.085938 826.574219 678.226562 826.574219 686.351562 L 856.589844 686.351562 C 856.589844 677.480469 855.445312 671.15625 853.152344 667.375 C 850.867188 663.585938 847.363281 661.691406 842.632812 661.691406 " fill-opacity="1" fill-rule="nonzero"/><path fill="#f50f0d" d="M 1205.484375 728.65625 C 1203.050781 730.4375 1199.710938 731.839844 1195.449219 732.855469 C 1191.1875 733.863281 1186.828125 734.367188 1182.375 734.367188 C 1159.742188 734.367188 1148.425781 722.0625 1148.425781 697.449219 C 1148.425781 685.816406 1151.304688 676.871094 1157.078125 670.601562 C 1162.84375 664.339844 1171.105469 661.203125 1181.859375 661.203125 C 1188.546875 661.203125 1195.855469 661.976562 1203.777344 663.511719 L 1203.777344 682.96875 L 1199.695312 682.96875 L 1196.492188 670.632812 C 1192.378906 668.3125 1187.449219 667.152344 1181.714844 667.152344 C 1168.433594 667.152344 1161.792969 677.253906 1161.792969 697.449219 C 1161.792969 707.957031 1163.808594 715.449219 1167.84375 719.933594 C 1171.875 724.40625 1178.132812 726.644531 1186.605469 726.644531 C 1193.835938 726.644531 1200.132812 725.828125 1205.480469 724.191406 L 1205.480469 728.65625 Z M 1205.484375 728.65625 " fill-opacity="1" fill-rule="nonzero"/><path fill="#f50f0d" d="M 1280.453125 697.59375 C 1280.453125 722.113281 1269.554688 734.367188 1247.753906 734.367188 C 1237.253906 734.367188 1229.332031 731.226562 1223.984375 724.9375 C 1218.636719 718.648438 1215.964844 709.53125 1215.964844 697.59375 C 1215.964844 685.816406 1218.636719 676.8125 1223.984375 670.574219 C 1229.332031 664.328125 1237.453125 661.203125 1248.355469 661.203125 C 1258.949219 661.203125 1266.945312 664.265625 1272.34375 670.382812 C 1277.75 676.492188 1280.453125 685.5625 1280.453125 697.59375 M 1267.085938 697.59375 C 1267.085938 686.902344 1265.523438 679.160156 1262.398438 674.359375 C 1259.273438 669.554688 1254.390625 667.152344 1247.753906 667.152344 C 1241.265625 667.152344 1236.578125 669.453125 1233.679688 674.054688 C 1230.777344 678.65625 1229.332031 686.503906 1229.332031 697.59375 C 1229.332031 708.84375 1230.804688 716.8125 1233.753906 721.488281 C 1236.699219 726.167969 1241.367188 728.507812 1247.753906 728.507812 C 1254.292969 728.507812 1259.15625 726.082031 1262.324219 721.222656 C 1265.5 716.371094 1267.085938 708.492188 1267.085938 697.59375 " fill-opacity="1" fill-rule="nonzero"/><path fill="#f50f0d" d="M 1310.46875 668.707031 C 1314.175781 666.574219 1318.113281 664.792969 1322.28125 663.363281 C 1326.441406 661.921875 1330.109375 661.203125 1333.285156 661.203125 C 1336.699219 661.203125 1339.859375 661.851562 1342.757812 663.140625 C 1345.65625 664.425781 1347.820312 666.476562 1349.253906 669.292969 C 1353.074219 667.171875 1357.539062 665.292969 1362.664062 663.65625 C 1367.792969 662.023438 1372.042969 661.203125 1375.414062 661.203125 C 1387.300781 661.203125 1393.246094 668.0625 1393.246094 681.777344 L 1393.246094 727.6875 L 1402.238281 729.535156 L 1402.238281 732.882812 L 1370.507812 732.882812 L 1370.507812 729.535156 L 1380.910156 727.6875 L 1380.910156 683.113281 C 1380.910156 674.597656 1376.945312 670.335938 1369.023438 670.335938 C 1367.730469 670.335938 1366.226562 670.441406 1364.515625 670.644531 C 1362.808594 670.84375 1361.097656 671.066406 1359.386719 671.308594 C 1357.683594 671.554688 1356.050781 671.835938 1354.496094 672.160156 C 1352.9375 672.480469 1351.632812 672.742188 1350.589844 672.9375 C 1351.425781 675.609375 1351.851562 678.558594 1351.851562 681.777344 L 1351.851562 727.6875 L 1362.339844 729.535156 L 1362.339844 732.882812 L 1329.195312 732.882812 L 1329.195312 729.535156 L 1339.523438 727.6875 L 1339.523438 683.113281 C 1339.523438 679.003906 1338.472656 675.847656 1336.363281 673.640625 C 1334.257812 671.441406 1331.101562 670.339844 1326.890625 670.339844 C 1322.53125 670.339844 1317.105469 671.058594 1310.613281 672.496094 L 1310.613281 727.6875 L 1321.089844 729.535156 L 1321.089844 732.882812 L 1289.429688 732.882812 L 1289.429688 729.535156 L 1298.273438 727.6875 L 1298.273438 668.253906 L 1289.429688 666.402344 L 1289.429688 663.054688 L 1309.863281 663.054688 Z M 1310.46875 668.707031 " fill-opacity="1" fill-rule="nonzero"/><path fill="#f50f0d" d="M 304.15625 884.382812 C 269.140625 901.519531 236.175781 921.023438 205.253906 942.683594 L 313.8125 942.683594 C 494.808594 820.214844 714.085938 808.109375 942.203125 838.707031 C 716.101562 780.980469 493.613281 791.675781 304.15625 884.382812 " fill-opacity="1" fill-rule="nonzero"/><path fill="#010103" d="M 463.535156 904.335938 C 436.800781 915.609375 411.632812 928.4375 388.023438 942.683594 L 470.90625 942.683594 C 609.09375 862.128906 776.507812 854.164062 950.671875 874.292969 C 778.046875 836.320312 608.183594 843.355469 463.535156 904.335938 " fill-opacity="1" fill-rule="nonzero"/><path fill="#fe140e" d="M 1121.207031 616.355469 C 1100.675781 607.96875 1079.707031 603.59375 1059.132812 603.769531 C 1043.132812 603.90625 1027.367188 606.800781 1012.238281 612.707031 C 981.960938 624.527344 958.796875 642.667969 942.164062 665.445312 C 938.464844 670.507812 935.089844 675.796875 932.035156 681.300781 C 930.5 684.050781 929.054688 686.855469 927.679688 689.707031 C 925.621094 693.988281 923.742188 698.378906 922.035156 702.878906 C 919.1875 710.378906 916.820312 718.171875 914.925781 726.21875 L 958.070312 726.21875 C 965.273438 706.785156 975.574219 689.046875 989.171875 673.574219 C 990.144531 672.46875 991.128906 671.375 992.132812 670.292969 C 994.148438 668.128906 996.222656 666.011719 998.367188 663.941406 C 999.441406 662.90625 1000.53125 661.886719 1001.636719 660.875 C 1003.851562 658.855469 1006.132812 656.886719 1008.484375 654.96875 C 1016.714844 648.25 1025.785156 642.160156 1035.726562 636.761719 C 1042.828125 632.90625 1050.367188 629.40625 1058.363281 626.285156 C 1068.5 622.328125 1078.871094 619.566406 1089.378906 617.933594 C 1092.007812 617.523438 1094.640625 617.1875 1097.285156 616.917969 C 1102.570312 616.382812 1107.878906 616.121094 1113.207031 616.132812 C 1115.871094 616.140625 1118.539062 616.214844 1121.207031 616.355469 " fill-opacity="1" fill-rule="nonzero"/><path fill="#bf0000" d="M 1012.511719 557.027344 L 1012.511719 612.605469 C 1015.640625 611.394531 1018.800781 610.332031 1021.980469 609.371094 L 1021.980469 566.492188 L 1041.039062 566.492188 L 1041.039062 660.691406 L 1050.507812 660.691406 L 1050.507812 557.027344 Z M 1012.511719 557.027344 " fill-opacity="1" fill-rule="nonzero"/><path fill="#bf0000" d="M 1111.117188 649.203125 L 1103.324219 649.203125 L 1103.324219 578.773438 L 1087.636719 578.773438 L 1087.636719 631.328125 L 1079.84375 631.328125 L 1079.84375 570.542969 L 1111.117188 570.542969 Z M 1111.117188 649.203125 " fill-opacity="1" fill-rule="nonzero"/></svg>