<svg xmlns="http://www.w3.org/2000/svg" xmlns:xlink="http://www.w3.org/1999/xlink" width="2000" zoomAndPan="magnify" viewBox="0 0 1500 1499.999933" height="2000" preserveAspectRatio="xMidYMid meet" version="1.0"><defs><clipPath id="c13b113326"><path d="M 0 585.9375 L 1500 585.9375 L 1500 914.4375 L 0 914.4375 Z M 0 585.9375 " clip-rule="nonzero"/></clipPath></defs><g clip-path="url(#c13b113326)"><path fill="#d40e2a" d="M 1026.320312 585.960938 C 929.351562 585.960938 864.988281 658.167969 864.988281 750.082031 C 864.988281 847.265625 930.222656 914.070312 1026.320312 914.070312 C 1120.578125 914.070312 1187.320312 844.261719 1187.320312 750.003906 C 1187.320312 655.769531 1120.570312 585.960938 1026.320312 585.960938 Z M 474.25 586.191406 C 443.445312 586.191406 404.46875 596.8125 375.789062 620.425781 C 341.578125 648.597656 315.097656 692.675781 315.097656 751.976562 C 315.097656 803.109375 331.644531 844.289062 361.503906 872.183594 C 390.730469 899.5 432.070312 914.414062 483.328125 914.414062 C 524.59375 914.414062 574.429688 898.820312 595.804688 885.589844 C 603.285156 880.964844 605.632812 878.976562 603.695312 871.414062 L 590.347656 833.566406 C 588.796875 827.359375 581.921875 825.769531 576.335938 828.550781 C 566.953125 833.167969 559.945312 836.800781 550.429688 840.3125 C 531.953125 847.152344 512.832031 851.816406 494.632812 851.816406 C 456.308594 851.816406 434.515625 841.390625 417.828125 822.144531 C 407.230469 809.925781 401.023438 794.4375 399.089844 776.542969 L 610.5625 776.542969 C 618.257812 776.542969 621.683594 771.21875 621.683594 762.214844 L 621.683594 746.957031 C 621.683594 739.523438 621.347656 727.855469 620.714844 720.878906 C 616.828125 678.246094 601.160156 643.949219 575.023438 620.710938 C 549.84375 598.289062 516.042969 586.191406 474.25 586.191406 Z M 819.019531 586.496094 C 757.957031 586.496094 720.664062 600.519531 696.738281 631.40625 C 678.410156 655.089844 675.09375 681.582031 675.113281 738.261719 L 675.113281 893.824219 C 675.960938 904.910156 680.414062 910.09375 690.761719 910.09375 L 739.070312 910.09375 C 750.246094 910.09375 754.8125 904.257812 754.8125 893.824219 L 754.8125 735.359375 C 754.8125 699.660156 755.246094 679.742188 767.785156 666.265625 C 778.570312 654.679688 793.039062 647.101562 823.390625 647.101562 C 829.402344 647.101562 843.816406 648.6875 848.847656 649.300781 C 850.75 649.535156 852.300781 649.683594 853.117188 649.683594 C 858.351562 649.683594 860.171875 647.777344 861.851562 641.117188 L 869.097656 605.453125 C 870.433594 598.140625 869.320312 592.457031 862.042969 590.726562 C 850.980469 588.105469 833.367188 586.496094 819.019531 586.496094 Z M 17.804688 590.734375 C 12.550781 590.734375 8.773438 594.925781 10.9375 602.007812 C 25.332031 649.089844 61.84375 704.988281 99.699219 750.871094 C 51.457031 794.382812 17.71875 852.261719 0.792969 898.765625 C -1.703125 905.605469 2.167969 910.074219 5.972656 910.074219 L 62.902344 910.074219 C 71.097656 910.074219 74.855469 907.15625 78.613281 898.820312 C 94 864.785156 116.851562 825.511719 146.820312 793.65625 C 174.292969 820.140625 198.332031 860.410156 213.738281 898.820312 C 218.054688 909.441406 223.046875 910.074219 229.496094 910.074219 L 291.570312 910.074219 C 303.449219 910.074219 304.5 903.628906 302.363281 898.007812 C 278.6875 835.527344 228.320312 771.757812 199.910156 744.820312 C 225.925781 717.019531 273.082031 663.324219 293.6875 602.007812 C 296.722656 592.984375 291.117188 590.734375 286.464844 590.734375 L 234.488281 590.734375 C 228.1875 590.734375 223.976562 592.9375 219.316406 602.007812 C 191.324219 654.859375 166.125 686.023438 155.277344 697.257812 C 138.179688 676.9375 115.703125 640.382812 99.253906 602.007812 C 95.683594 593.683594 91.90625 590.734375 84.675781 590.734375 Z M 1214.550781 590.734375 C 1209.316406 590.734375 1205.53125 594.925781 1207.683594 602.007812 C 1222.070312 649.089844 1258.582031 704.988281 1296.449219 750.871094 C 1248.214844 794.382812 1214.476562 852.261719 1197.546875 898.765625 C 1195.050781 905.605469 1198.949219 910.074219 1202.738281 910.074219 L 1259.65625 910.074219 C 1267.84375 910.074219 1271.601562 907.15625 1275.351562 898.820312 C 1290.75 864.785156 1313.589844 825.511719 1343.570312 793.65625 C 1371.050781 820.140625 1395.089844 860.410156 1410.476562 898.820312 C 1414.832031 909.441406 1419.8125 910.074219 1426.246094 910.074219 L 1488.316406 910.074219 C 1500.1875 910.074219 1501.246094 903.628906 1499.121094 898.007812 C 1475.425781 835.527344 1425.058594 771.757812 1396.683594 744.820312 C 1422.679688 717.019531 1469.847656 663.324219 1490.445312 602.007812 C 1493.488281 592.984375 1487.871094 590.734375 1483.214844 590.734375 L 1431.257812 590.734375 C 1424.949219 590.734375 1420.722656 592.9375 1416.066406 602.007812 C 1388.082031 654.859375 1362.882812 686.023438 1352.042969 697.257812 C 1334.929688 676.9375 1312.449219 640.382812 1295.996094 602.007812 C 1292.429688 593.683594 1288.632812 590.734375 1281.421875 590.734375 Z M 1026.367188 646.039062 C 1082.824219 646.039062 1104.097656 694.925781 1104.097656 750.027344 C 1104.097656 805.144531 1082.824219 854.0625 1026.367188 854.054688 C 969.890625 854.054688 948.136719 805.144531 948.136719 750.027344 C 948.136719 694.933594 969.890625 646.039062 1026.367188 646.039062 Z M 476.894531 646.320312 C 519.132812 646.320312 544.9375 675.039062 544.9375 717.671875 L 544.9375 719.605469 L 398.972656 719.605469 C 400.539062 709.003906 403.566406 698.929688 408.316406 689.367188 C 421.328125 663.089844 446.148438 646.320312 476.894531 646.320312 Z M 476.894531 646.320312 " fill-opacity="1" fill-rule="nonzero"/></g></svg>